<svg xmlns="http://www.w3.org/2000/svg" xmlns:xlink="http://www.w3.org/1999/xlink" width="210.877" height="39.941" viewBox="0 0 210.877 39.941"><defs><style>.a{fill:#18937e;}.b{clip-path:url(#a);}.c{fill:#54b5bd;}</style><clipPath id="a"><rect class="a" width="210.877" height="39.941"/></clipPath></defs><g class="b"><path class="a" d="M1247.919,58.8V71.184c0,.113-.006.226,0,.338.011.186-.073.266-.257.255-.08,0-.161,0-.242,0h-5.278c-.476,0-.479,0-.479-.468q0-4.86,0-9.721c0-.129-.007-.258,0-.387.011-.181-.057-.272-.248-.258-.1.007-.193,0-.29,0h-8.086c-.1,0-.194,0-.29,0-.157-.007-.244.049-.237.22.006.129,0,.258,0,.387q0,4.619,0,9.237,0,.242,0,.484c0,.528.037.507-.49.507H1226.7a1.934,1.934,0,0,0-.194,0c-.212.021-.292-.079-.277-.282.008-.112,0-.226,0-.338q0-12.333,0-24.665c0-.714-.081-.6.621-.607q2.542-.008,5.084,0c.632,0,.579-.075.579.559q0,4.522,0,9.044c0,.1,0,.194,0,.29.007.35.008.359.335.359q4.237,0,8.473,0c.339,0,.342-.009.342-.449q0-4.594,0-9.189c0-.7-.08-.612.62-.614,1.695,0,3.389,0,5.084,0,.113,0,.226,0,.339,0,.138,0,.21.058.21.2s0,.258,0,.387q0,6.166,0,12.332" transform="translate(-1102.468 -41.249)"/><path class="c" d="M0,17.493A17.512,17.512,0,1,1,17.525,34.984,17.48,17.48,0,0,1,0,17.493m3.75-.037A13.769,13.769,0,1,0,17.536,3.732,13.771,13.771,0,0,0,3.75,17.456" transform="translate(0 0)"/><path class="a" d="M388.5,58.805q0-6.215,0-12.429c0-.616-.048-.537.548-.537,2.744,0,5.488-.022,8.231.006a11.621,11.621,0,0,1,6.393,1.922,11.4,11.4,0,0,1,4.783,6.859,17.348,17.348,0,0,1,.43,5.082,13.692,13.692,0,0,1-.506,3.526,11.242,11.242,0,0,1-8.991,8.287,10.278,10.278,0,0,1-2.162.212q-4.091,0-8.182,0c-.1,0-.194-.007-.29,0-.192.016-.261-.077-.253-.257,0-.113,0-.226,0-.338Zm6.286-.022v7.152c0,.242.012.484,0,.725-.013.221.088.273.287.269.806-.016,1.615.02,2.417-.038a4.684,4.684,0,0,0,4.022-2.609,7.9,7.9,0,0,0,.852-2.9,23.923,23.923,0,0,0,0-5.2,7.794,7.794,0,0,0-.846-2.852,4.717,4.717,0,0,0-3.937-2.589c-.772-.075-1.546-.062-2.319-.062-.467,0-.467,0-.47.473,0,.081,0,.161,0,.242Z" transform="translate(-349.294 -41.205)"/><path class="a" d="M1649.83,109.384a1.379,1.379,0,0,0,.129-.063,1.166,1.166,0,0,1,.917-.259h5.276c.433,0,.435,0,.55.409q1.3,4.625,2.6,9.251c.044.154.091.308.142.477.2-.082.174-.274.214-.409q1.34-4.513,2.667-9.03c.04-.136.049-.38.153-.384.3-.012.424-.331.753-.327,1.984.025,3.969.013,5.953.014a1.421,1.421,0,0,1,.159.019c.078.2-.055.371-.114.54q-2.221,6.385-4.453,12.767-1.591,4.56-3.181,9.12a9.312,9.312,0,0,1-1.315,2.624,5.793,5.793,0,0,1-4.261,2.279,9.237,9.237,0,0,1-3.355-.3.4.4,0,0,1-.353-.462c.018-1.192.006-2.385.009-3.578,0-.362.008-.364.377-.37a8.721,8.721,0,0,0,1.59-.105,2.077,2.077,0,0,0,1.641-1.344,7.342,7.342,0,0,0,.508-1.4c.081-.5-.244-.949-.4-1.415q-3.047-8.884-6.11-17.763c-.031-.091-.057-.184-.087-.283" transform="translate(-1483.323 -98.044)"/><path class="a" d="M907.685,126.052c-.189.063-.269.213-.379.324a5.487,5.487,0,0,1-3.826,1.605,7.237,7.237,0,0,1-3.444-.593,5.706,5.706,0,0,1-.214-10.479,12.052,12.052,0,0,1,3.635-.93,33.8,33.8,0,0,1,3.529-.093c.422,0,.426,0,.425-.417a8.034,8.034,0,0,0-.075-1.444,1.963,1.963,0,0,0-1.969-1.775,3.655,3.655,0,0,0-.868.044,1.66,1.66,0,0,0-1.443,1.477,2.644,2.644,0,0,0-.031.337c0,.158-.065.241-.231.231-.064,0-.129,0-.193,0h-5.18a1.2,1.2,0,0,0-.145,0c-.234.029-.314-.073-.3-.3a5.565,5.565,0,0,1,.5-2.051,5.643,5.643,0,0,1,1.633-2.008,8.765,8.765,0,0,1,4.373-1.8,12.4,12.4,0,0,1,5.036.251,6.74,6.74,0,0,1,3.64,2.334,6.079,6.079,0,0,1,1.285,3.821c.013,2.853-.01,5.705.012,8.558a10.707,10.707,0,0,0,.442,3.289c.1.292.231.566.345.849s.042.376-.269.377c-1.807,0-3.614,0-5.422.007a.386.386,0,0,1-.436-.282c-.094-.291-.2-.578-.293-.869-.048-.148-.087-.3-.132-.458m-.273-5.364c0-.45,0-.9,0-1.351,0-.181-.063-.259-.252-.259a15.983,15.983,0,0,0-2.411.1,2.355,2.355,0,0,0-2.138,2.041,3.786,3.786,0,0,0-.045.721,1.709,1.709,0,0,0,1.319,1.691,3.3,3.3,0,0,0,3.378-1.24.815.815,0,0,0,.149-.495c-.008-.4,0-.8,0-1.207" transform="translate(-806.021 -97.129)"/><path class="a" d="M606.283,117.921a11.034,11.034,0,0,1,.961-5.039,8.1,8.1,0,0,1,6.07-4.755,11.029,11.029,0,0,1,5.036.115,8.194,8.194,0,0,1,6.041,5.95,13.816,13.816,0,0,1,.426,5.168,10.152,10.152,0,0,1-.675,3.052,8.187,8.187,0,0,1-6.85,5.336,11.052,11.052,0,0,1-4.653-.247,8.329,8.329,0,0,1-6.044-6.426,11.012,11.012,0,0,1-.313-3.154m6.03-.015c0,.354-.02.71,0,1.063a6.922,6.922,0,0,0,.551,2.53,2.778,2.778,0,0,0,2.693,1.7,2.745,2.745,0,0,0,2.7-1.682,5.472,5.472,0,0,0,.434-1.427,13.808,13.808,0,0,0,.077-3.848,5.753,5.753,0,0,0-.581-2.08,2.645,2.645,0,0,0-1.492-1.373,2.909,2.909,0,0,0-3.846,1.621c-.063.148-.118.3-.168.452a8.882,8.882,0,0,0-.367,3.05" transform="translate(-545.085 -97.002)"/><path class="a" d="M1483.05,117.931a10.652,10.652,0,0,1-.7,4.465,8.178,8.178,0,0,1-6.843,5.347,11.129,11.129,0,0,1-4.653-.242,8.246,8.246,0,0,1-5.913-5.907,13.588,13.588,0,0,1-.426-5.025,10.806,10.806,0,0,1,.751-3.281,8.133,8.133,0,0,1,6.189-5.154,11.023,11.023,0,0,1,5.13.112,8.187,8.187,0,0,1,5.964,5.787,11.125,11.125,0,0,1,.5,3.9m-12.559.156c.016.343.021.844.068,1.34a5.826,5.826,0,0,0,.7,2.436,3.009,3.009,0,0,0,5.029-.04,5.614,5.614,0,0,0,.549-1.488,13.273,13.273,0,0,0,.165-3.75,6.039,6.039,0,0,0-.634-2.46,2.765,2.765,0,0,0-2.645-1.538,2.707,2.707,0,0,0-2.568,1.576,5.234,5.234,0,0,0-.333.853,11.169,11.169,0,0,0-.333,3.07" transform="translate(-1316.654 -96.997)"/><path class="a" d="M820.584,45.181V58.143c0,.113,0,.226,0,.338-.009.36-.009.366-.383.367q-2.639,0-5.277,0c-.361,0-.361-.008-.369-.38,0-.1,0-.193,0-.29q0-13.034,0-26.067c0-.716-.079-.6.624-.6,1.646-.006,3.292,0,4.939,0,.487,0,.467-.045.467.475q0,6.6,0,13.2" transform="translate(-732.344 -28.321)"/><path class="a" d="M1098.153,110.755c.394-.462.7-.91,1.1-1.3a4.216,4.216,0,0,1,3.083-1.278,6.88,6.88,0,0,1,1.346.112c.385.076.391.082.384.466q-.041,2.439-.092,4.878c-.007.357-.015.366-.4.346-.515-.027-1.028-.078-1.543-.1a5.252,5.252,0,0,0-2.09.305,2.86,2.86,0,0,0-1.054.666,1.7,1.7,0,0,0-.536,1.286c.022,3.69.012,7.379.011,11.069,0,.658.067.581-.6.582q-2.516,0-5.033,0c-.416,0-.421,0-.421-.428q0-9.208,0-18.416c0-.4.006-.4.395-.405q2.444,0,4.888,0c.394,0,.39.007.42.394.048.608.1,1.215.155,1.822" transform="translate(-982.056 -97.262)"/><path class="c" d="M1439.336,333.127a1.653,1.653,0,0,1,.749,1.582,3.208,3.208,0,0,0,.211,1.333.921.921,0,0,0,.286-.467c.775-1.753,1.555-3.5,2.307-5.268a.69.69,0,0,1,.788-.517,11.768,11.768,0,0,0,1.258.006.374.374,0,0,1,.412.247c.874,2.009,1.76,4.013,2.64,6.019a.875.875,0,0,1,.026.188c-.574,0-1.133,0-1.692,0-.167,0-.21-.125-.258-.244-.1-.254-.21-.506-.3-.764a.361.361,0,0,0-.391-.277q-1.186.014-2.372,0a.35.35,0,0,0-.4.267c-.079.245-.194.478-.282.72a.386.386,0,0,1-.417.306q-1.573-.021-3.147,0a.335.335,0,0,1-.384-.333,3.446,3.446,0,0,1-.028-.53,3.739,3.739,0,0,0-.068-.769.739.739,0,0,0-.78-.7c-.661-.018-1.323,0-1.985-.012-.221,0-.27.105-.269.3q.009.846,0,1.692c0,.34-.01.345-.354.35s-.711-.011-1.065.005c-.259.012-.33-.094-.328-.338.009-1.08,0-2.16,0-3.24,0-.822,0-1.644,0-2.466,0-.359.009-.37.333-.371,1.549,0,3.1-.009,4.647.006a1.732,1.732,0,0,1,1.44.67,1.811,1.811,0,0,1-.446,2.506c-.038.025-.074.054-.141.1m-2.772-.456v-.006c.354,0,.711.02,1.063,0a.744.744,0,0,0,.738-.837c-.016-.462-.28-.737-.823-.761-.676-.03-1.353-.007-2.03-.012-.176,0-.27.061-.266.252q.009.555,0,1.111c0,.182.068.262.255.259.354-.007.709,0,1.064,0m7.665-1.312-.1.02-.942,2.415c.695-.005,1.309.018,1.991-.017l-.945-2.417" transform="translate(-1288.824 -296.502)"/><path class="a" d="M1986.054,225.441c1.189-1.077,3.321-1.159,4.207.245a2.946,2.946,0,0,1,1.15-.864,3.374,3.374,0,0,1,1.953-.091,2.045,2.045,0,0,1,1.571,1.871,4.044,4.044,0,0,1,.049.674q.006,2.273,0,4.546c0,.413-.005.415-.428.418-.323,0-.646-.011-.968,0-.232.011-.308-.071-.305-.3.011-.887,0-1.773,0-2.66,0-.613,0-1.225,0-1.838a1.273,1.273,0,0,0-1.847-1.308,1.391,1.391,0,0,0-.908,1.348c.008,1.37.023,2.74.026,4.11,0,.73.094.651-.638.643-.348,0-.791.157-1.019-.083-.2-.215-.06-.646-.062-.981-.007-1.225,0-2.451,0-3.676a1.338,1.338,0,0,0-2-1.323,1.032,1.032,0,0,0-.723,1.069q0,2.3,0,4.595c0,.395-.006.4-.4.4-.274,0-.549,0-.823,0-.575,0-.5.044-.5-.532q0-2.3,0-4.595c0-.661,0-1.322,0-1.983,0-.349.008-.353.339-.359.306-.005.613,0,.92,0,.353,0,.353.008.381.375.006.079.016.157.031.295" transform="translate(-1784.109 -201.959)"/><path class="c" d="M1027.552,334.617v-.458c0-1.144,0-2.288,0-3.433,0-.4.007-.406.394-.411.355,0,.71,0,1.065,0,.184,0,.265.075.258.259s0,.354,0,.532q0,2.586,0,5.173c0,.444,0,.446-.452.449-.371,0-.743-.018-1.113.006a.643.643,0,0,1-.6-.3c-.974-1.263-1.962-2.517-2.945-3.773-.068-.087-.143-.168-.22-.258-.142.107-.084.245-.085.36-.005,1.193,0,2.385,0,3.578,0,.378-.007.382-.367.387s-.742,0-1.113,0c-.157,0-.241-.064-.236-.229,0-.1,0-.193,0-.29q0-2.683,0-5.366c0-.1,0-.193,0-.29-.005-.161.069-.236.23-.235.549,0,1.1.005,1.646,0,.219,0,.3.154.409.294q1.323,1.757,2.646,3.516c.131.175.265.348.4.521l.095-.026" transform="translate(-918.971 -296.976)"/><path class="c" d="M472.906,328.661a5.747,5.747,0,0,1,1.6.174,3.041,3.041,0,0,1,2.439,3.4,3.739,3.739,0,0,1-.125.859,2.738,2.738,0,0,1-1.781,1.957,5.981,5.981,0,0,1-4.214,0,2.764,2.764,0,0,1-1.852-2.393,4.408,4.408,0,0,1,.021-1.4,2.92,2.92,0,0,1,2.3-2.4,5.289,5.289,0,0,1,1.608-.191m.091,1.245a2.126,2.126,0,1,0,2.077,2.156A2,2,0,0,0,473,329.906" transform="translate(-421.603 -295.487)"/><path class="c" d="M1181.77,334.59v-3.576c0-.064,0-.129,0-.193.005-.635-.06-.57.568-.574.291,0,.581,0,.871,0,.159,0,.241.063.234.228,0,.1,0,.193,0,.29q0,2.683,0,5.365c0,.1,0,.193,0,.29.005.157-.058.238-.225.237-.5,0-1-.006-1.5,0-.219,0-.3-.153-.411-.29q-1.429-1.828-2.859-3.656c-.106-.135-.183-.3-.358-.383-.119.106-.066.243-.066.36-.005,1.144,0,2.288,0,3.432,0,.59.046.531-.557.535-.258,0-.516,0-.774,0-.332-.008-.338-.011-.342-.361-.005-.467,0-.934,0-1.4q0-2.1,0-4.205c0-.438,0-.44.457-.442.4,0,.808.021,1.209-.007a.672.672,0,0,1,.633.344q1.359,1.821,2.733,3.631a.888.888,0,0,0,.39.376" transform="translate(-1057.624 -296.909)"/><path class="a" d="M1914.763,228.6a3.975,3.975,0,0,1-.439,2.1,3.143,3.143,0,0,1-2.761,1.745,3.412,3.412,0,0,1-3.748-3.515,5.137,5.137,0,0,1,.168-1.72,3.292,3.292,0,0,1,3.3-2.514,3.256,3.256,0,0,1,3.152,1.976,3.569,3.569,0,0,1,.325,1.3c.014.208,0,.418,0,.627m-5.238-.175a3.52,3.52,0,0,0,.332,1.777,1.555,1.555,0,0,0,1.5.867,1.469,1.469,0,0,0,1.408-.925,3.834,3.834,0,0,0,.046-3.044,1.547,1.547,0,0,0-1.59-1.023,1.574,1.574,0,0,0-1.474,1.122,3.458,3.458,0,0,0-.221,1.227" transform="translate(-1715.261 -202.018)"/><path class="c" d="M396.785,334.57v-.487c0-1.144,0-2.288,0-3.432,0-.4.006-.407.389-.413.29,0,.581,0,.871,0,.408,0,.412.007.413.438q0,1.885,0,3.77c0,.6,0,1.192,0,1.789,0,.41-.006.412-.434.415-.387,0-.775-.012-1.161.005a.577.577,0,0,1-.526-.263q-1.418-1.837-2.853-3.66a1.5,1.5,0,0,0-.448-.458v.522c0,1.16,0,2.32,0,3.48,0,.365-.008.368-.378.373-.323,0-.646-.012-.968,0-.254.013-.334-.085-.332-.334.01-.951,0-1.9,0-2.852s0-1.9,0-2.852c0-.369.008-.374.375-.378.419,0,.841.022,1.258-.009a.709.709,0,0,1,.677.356c.9,1.216,1.818,2.423,2.731,3.632a.745.745,0,0,0,.382.352" transform="translate(-351.86 -296.9)"/><path class="c" d="M824.4,333.13a2.845,2.845,0,0,0,.339,0c.367-.044.631,0,.75.445.091.336.453.444.774.506a4.029,4.029,0,0,0,1.349.015,1.121,1.121,0,0,0,.45-.169.63.63,0,0,0,.3-.616.552.552,0,0,0-.4-.495,6.913,6.913,0,0,0-1.373-.261,14.346,14.346,0,0,1-1.758-.319,1.655,1.655,0,0,1-1.262-1.083,1.772,1.772,0,0,1,1.038-2.223,4.291,4.291,0,0,1,1.315-.3,7.343,7.343,0,0,1,2.545.172,2.593,2.593,0,0,1,.873.4,1.767,1.767,0,0,1,.679.915c.136.437.087.508-.361.512-.4,0-.807-.005-1.21,0-.181,0-.3-.037-.356-.234a.753.753,0,0,0-.451-.478,2.445,2.445,0,0,0-1.793-.052.609.609,0,0,0-.463.609c.011.265.176.454.543.526.584.116,1.175.2,1.763.3.349.059.7.117,1.046.186a2.757,2.757,0,0,1,.464.134,1.564,1.564,0,0,1,1.149,1.355,1.813,1.813,0,0,1-.882,1.852,3.86,3.86,0,0,1-1.658.479,7.967,7.967,0,0,1-2.785-.17,1.964,1.964,0,0,1-1.588-1.454,2.812,2.812,0,0,1-.049-.285c-.024-.179.043-.273.237-.267.258.007.516,0,.774,0Z" transform="translate(-740.285 -295.427)"/><path class="c" d="M1578.1,333.145c.145,0,.291.01.436,0,.325-.028.564,0,.672.405.094.353.46.486.8.549a4.037,4.037,0,0,0,1.349.01,1.341,1.341,0,0,0,.363-.126.63.63,0,0,0,.394-.612.576.576,0,0,0-.457-.554,7.278,7.278,0,0,0-1.232-.239c-.444-.076-.894-.125-1.337-.208a4.455,4.455,0,0,1-.789-.221,1.459,1.459,0,0,1-1.044-1.268,1.7,1.7,0,0,1,.841-1.808,3.64,3.64,0,0,1,1.43-.411,7.459,7.459,0,0,1,2.594.135,2.8,2.8,0,0,1,1.006.457,1.72,1.72,0,0,1,.546.666c.3.639.246.728-.451.728-.339,0-.678-.005-1.016,0-.176,0-.308-.025-.372-.221a.938.938,0,0,0-.756-.6,3.381,3.381,0,0,0-1.154-.047,1.064,1.064,0,0,0-.532.217.557.557,0,0,0-.276.53.525.525,0,0,0,.392.447,4.975,4.975,0,0,0,.66.144c.762.13,1.526.248,2.287.384a2.813,2.813,0,0,1,.6.187,1.732,1.732,0,0,1,.586,2.8,2.6,2.6,0,0,1-1.536.753,8.266,8.266,0,0,1-3.219-.061,2.76,2.76,0,0,1-.974-.413,1.836,1.836,0,0,1-.785-1.382c-.021-.168.035-.243.2-.241.258,0,.516,0,.774,0Z" transform="translate(-1417.953 -295.442)"/><path class="c" d="M651.559,331.079c-.552,0-1.113,0-1.674,0-.147,0-.2-.094-.227-.206-.26-1.054-1.659-1.4-2.667-1a1.628,1.628,0,0,0-.956,1.03,2.857,2.857,0,0,0-.057,1.666,1.87,1.87,0,0,0,2.366,1.358,1.59,1.59,0,0,0,1.289-1.1.331.331,0,0,1,.379-.278c.435.015.871,0,1.306.006.315.006.316.014.25.342a2.561,2.561,0,0,1-1.636,1.947,5.639,5.639,0,0,1-2.8.339,5.042,5.042,0,0,1-.762-.122,2.889,2.889,0,0,1-2.355-2.813,4.979,4.979,0,0,1,.056-1.2,2.756,2.756,0,0,1,2.082-2.353,6.019,6.019,0,0,1,3.573.061,2.54,2.54,0,0,1,1.859,2.189.6.6,0,0,1-.025.137" transform="translate(-579.005 -295.303)"/><path class="c" d="M1261.609,331.021a1.478,1.478,0,0,0-.194,0,.754.754,0,0,1-.952-.525,1.492,1.492,0,0,0-1.429-.831c-1.863-.118-2.343,1.348-2.142,2.586a1.971,1.971,0,0,0,2.951,1.437,1.429,1.429,0,0,0,.759-.9.353.353,0,0,1,.409-.3c.435.012.871.009,1.307,0,.225,0,.283.105.244.3a2.57,2.57,0,0,1-1.024,1.639,4.28,4.28,0,0,1-2.228.713,6.075,6.075,0,0,1-2.063-.17,2.841,2.841,0,0,1-2.241-2.793,7.284,7.284,0,0,1,.012-.966,2.71,2.71,0,0,1,1.846-2.489,5.765,5.765,0,0,1,4.116.076,2.468,2.468,0,0,1,1.556,1.9c.058.273.03.308-.249.319-.225.008-.452,0-.677,0" transform="translate(-1128.336 -295.241)"/><path class="c" d="M1365.663,333.523c0-.935,0-1.87,0-2.805,0-.386.008-.4.36-.4q2.639-.005,5.278,0c.358,0,.359.009.366.387,0,.161,0,.323,0,.484-.009.359-.011.366-.391.367-1.146,0-2.292,0-3.438,0-.424,0-.424.007-.432.429-.016.872-.016.872.853.872.952,0,1.9,0,2.857,0,.341,0,.354.01.35.353-.011.984.139.8-.809.815s-1.9,0-2.857,0c-.381,0-.385.011-.393.374q-.009.363,0,.725c.008.341.012.35.359.352.887.006,1.775,0,2.663,0,.323,0,.646.009.969,0,.255-.01.348.1.334.346a4.068,4.068,0,0,0,0,.58c.023.267-.106.325-.345.323-1.178-.008-2.356,0-3.535,0-.613,0-1.227,0-1.84,0-.34,0-.349-.01-.35-.355,0-.951,0-1.9,0-2.854" transform="translate(-1227.834 -296.982)"/><path class="a" d="M1847.157,229.895a2.619,2.619,0,0,1-1.119,2,3.335,3.335,0,0,1-5.278-2.191,5.973,5.973,0,0,1,.075-2.489,3.12,3.12,0,0,1,3.169-2.452,3.767,3.767,0,0,1,1.421.224,2.709,2.709,0,0,1,1.7,2.232c.05.347.029.366-.3.372s-.677-.007-1.016,0c-.2.006-.267-.069-.311-.267a1.376,1.376,0,0,0-1.272-1.187,1.444,1.444,0,0,0-1.606.969,4.425,4.425,0,0,0,.011,3.075,1.576,1.576,0,0,0,2.5.559c.119-.11.265-.227.281-.384.05-.508.4-.481.759-.466.3.013.609,0,.988,0" transform="translate(-1654.899 -202.077)"/><path class="c" d="M1104.208,336.282c-.556,0-1.1,0-1.648,0a.274.274,0,0,1-.28-.213c-.1-.271-.223-.535-.319-.807a.361.361,0,0,0-.4-.267q-1.184.013-2.368,0a.351.351,0,0,0-.389.274c-.092.274-.217.536-.322.806a.275.275,0,0,1-.283.209c-.544-.005-1.088,0-1.627,0a.633.633,0,0,1,.094-.4c.821-1.87,1.649-3.738,2.458-5.613a.614.614,0,0,1,.688-.443c.449.031.9.011,1.353.006a.347.347,0,0,1,.376.226q1.321,3.029,2.654,6.054a.646.646,0,0,1,.013.174m-4.829-2.457c.394,0,.7.006,1,0a4.576,4.576,0,0,0,.987-.045l-.98-2.5-1.008,2.545" transform="translate(-985.896 -296.533)"/><path class="c" d="M755.472,336.3c-.544,0-1.059-.006-1.574,0a.33.33,0,0,1-.364-.241c-.1-.273-.217-.538-.318-.809a.336.336,0,0,0-.365-.239q-1.21.011-2.421,0a.334.334,0,0,0-.356.252c-.1.272-.213.539-.319.809-.05.128-.116.226-.275.225-.545,0-1.09,0-1.631,0a.77.77,0,0,1,.126-.494c.814-1.859,1.637-3.715,2.445-5.577a.521.521,0,0,1,.571-.388c.467.027.936.011,1.4.005a.39.39,0,0,1,.423.241q1.322,3.035,2.653,6.066a.558.558,0,0,1,0,.149m-3.823-5c-.328.83-.616,1.558-.9,2.288-.079.2.028.257.208.257.449,0,.9,0,1.348,0,.1,0,.23.052.306-.114l-.96-2.429" transform="translate(-672.367 -296.546)"/><path class="c" d="M930.691,333.525c0-.951,0-1.9,0-2.852,0-.34.011-.35.353-.351q2.517-.005,5.033,0c.338,0,.352.011.347.355-.015,1.062.159.868-.84.881-.919.012-1.839,0-2.758,0-.379,0-.381.009-.39.368,0,.193,0,.387,0,.58.005.426.006.431.42.433.936,0,1.871,0,2.807,0,.531,0,.533,0,.532.517,0,.849.059.723-.717.728-.887.006-1.774,0-2.662,0-.37,0-.376.009-.379.374,0,.612-.011,1.225,0,1.837.006.254-.086.343-.335.333-.354-.014-.71,0-1.065,0-.338-.006-.347-.011-.348-.354,0-.951,0-1.9,0-2.852" transform="translate(-836.761 -296.982)"/><path class="c" d="M552.169,330.278c.951,0,1.9,0,2.853,0,.387,0,.4.007.4.359,0,1.047.121.863-.855.879-.37.006-.741,0-1.112,0-.427,0-.432.006-.433.421,0,.934,0,1.868,0,2.8,0,.547-.008,1.1,0,1.642,0,.23-.078.317-.308.309-.354-.012-.709,0-1.064,0s-.374-.008-.375-.377c0-1.32,0-2.641,0-3.961,0-.834,0-.834-.849-.834-.419,0-.838-.009-1.257,0-.233.007-.312-.085-.306-.312.027-1.149-.162-.909.89-.929.806-.015,1.612,0,2.418,0" transform="translate(-493.467 -296.94)"/><path class="c" d="M620.563,333.523c0,.934,0,1.868,0,2.8,0,.369-.008.373-.376.378s-.742,0-1.113,0c-.186,0-.259-.076-.255-.258.006-.274,0-.548,0-.821q0-2.44,0-4.88c0-.448,0-.449.447-.453.322,0,.645.01.967,0,.251-.011.337.084.334.335-.011.966,0,1.933,0,2.9" transform="translate(-556.364 -296.954)"/><path class="c" d="M726.56,333.448c0-.934,0-1.869,0-2.8,0-.344.01-.349.351-.355s.71.011,1.064,0c.254-.011.334.087.331.335-.01.918,0,1.836,0,2.755,0,.983,0,1.965,0,2.948,0,.37-.008.373-.374.378-.339,0-.677.006-1.016,0s-.351-.011-.352-.352c0-.967,0-1.933,0-2.9" transform="translate(-653.232 -296.951)"/><path class="c" d="M993.994,333.505c0-.934,0-1.869,0-2.8,0-.372.008-.376.372-.381s.742,0,1.113,0c.183,0,.267.072.259.258-.007.161,0,.322,0,.483q0,2.61,0,5.219c0,.448,0,.45-.447.453-.323,0-.646-.012-.968,0-.251.012-.338-.081-.334-.332.012-.757,0-1.514,0-2.271q0-.314,0-.628" transform="translate(-893.673 -296.982)"/><path class="c" d="M1339.311,333.521c0,.934,0,1.869,0,2.8,0,.37-.008.374-.374.379s-.742,0-1.113,0c-.184,0-.263-.072-.257-.256.007-.241,0-.483,0-.725q0-2.489,0-4.978c0-.449,0-.451.445-.454.323,0,.646.01.968,0,.249-.011.339.079.336.333-.011.966,0,1.933,0,2.9" transform="translate(-1202.574 -296.954)"/><path class="a" d="M1812.847,284.357a.93.93,0,1,1-.054-1.854.959.959,0,0,1,1.036.966.882.882,0,0,1-.982.888" transform="translate(-1628.97 -253.991)"/><path class="a" d="M106.929,73.62c.6,0,1.194.008,1.791,0,.231,0,.318.077.314.306a3.57,3.57,0,0,0,.087.766A2.25,2.25,0,0,0,111.1,76.6a4.43,4.43,0,0,0,1.445.046,1.818,1.818,0,0,0,1.671-1.319,2.154,2.154,0,0,0-.7-2.266,7.538,7.538,0,0,0-1.923-1,26.005,26.005,0,0,1-2.571-1.116,8.9,8.9,0,0,1-2.225-1.607,5.27,5.27,0,0,1,1.233-8.27,2.272,2.272,0,0,1,.258-.133.376.376,0,0,0,.246-.417c-.011-.548-.007-1.1,0-1.644,0-.363.009-.367.381-.37.629,0,1.259-.005,1.888,0,.34,0,.344.011.35.358s0,.709,0,1.064c0,.163.057.224.233.207.777-.077.637.091.664-.643.012-.317-.146-.717.079-.928.2-.187.587-.05.891-.058.371-.01.742,0,1.113,0,.588,0,.53-.031.533.51,0,.371.021.743-.006,1.112a.526.526,0,0,0,.386.609,5.394,5.394,0,0,1,2.86,2.752,5.724,5.724,0,0,1,.556,2.381c0,.326,0,.337-.3.338-1.194,0-2.388,0-3.582,0-.2,0-.3-.056-.294-.272a1.724,1.724,0,0,0-.037-.384,2.109,2.109,0,0,0-1.921-1.818,2.567,2.567,0,0,0-2.289.635,1.7,1.7,0,0,0-.05,2.431,3.519,3.519,0,0,0,.842.644,12.319,12.319,0,0,0,1.943.86,15.187,15.187,0,0,1,2.588,1.191,6.016,6.016,0,0,1,2.743,3.08,6.167,6.167,0,0,1,.088,4.079,4.86,4.86,0,0,1-2.961,3.057,2.123,2.123,0,0,1-.319.114.3.3,0,0,0-.247.351c.01.419-.007.838.007,1.257.007.235-.046.349-.316.342-.677-.017-1.355-.011-2.033,0-.209,0-.287-.069-.278-.28.013-.306-.007-.613.006-.918.009-.216-.052-.326-.289-.336-.737-.032-.585-.052-.611.557-.014.316.151.72-.085.923-.2.175-.59.045-.9.05-.435.007-.872-.01-1.307.006-.247.009-.343-.067-.334-.324.016-.5-.011-1,.01-1.5a.546.546,0,0,0-.355-.593,5.772,5.772,0,0,1-2.769-2.8,7,7,0,0,1-.6-2.571c-.021-.357-.013-.362.373-.364.581,0,1.162,0,1.743,0" transform="translate(-94.229 -52.558)"/></g></svg>